<?xml version="1.0" encoding="utf-8"?>
<!-- Generator: Adobe Illustrator 16.0.0, SVG Export Plug-In . SVG Version: 6.00 Build 0)  -->
<!DOCTYPE svg PUBLIC "-//W3C//DTD SVG 1.1//EN" "http://www.w3.org/Graphics/SVG/1.1/DTD/svg11.dtd">
<svg version="1.1" id="Layer_1" xmlns="http://www.w3.org/2000/svg" xmlns:xlink="http://www.w3.org/1999/xlink" x="0px" y="0px"
	 width="100px" height="100px" viewBox="0 0 100 100" enable-background="new 0 0 100 100" xml:space="preserve">
<g>
	<path fill="#0070C3" d="M67.188,100c-0.586,0-1.172,0-1.758,0c-0.346-0.408-0.861-0.361-1.311-0.467
		c-3.01-0.709-6.023-1.396-9.036-2.092c-0.224-0.211-0.504-0.188-0.778-0.197c-0.763-0.273-1.541-0.475-2.351-0.555
		c-0.236-0.164-0.498-0.228-0.783-0.197c-0.759-0.277-1.543-0.449-2.341-0.563c-0.262-0.066-0.523-0.134-0.785-0.199
		c-0.771-0.187-1.544-0.371-2.315-0.558c-0.335-0.075-0.67-0.151-1.005-0.229c-0.707-0.17-1.414-0.34-2.121-0.512
		c-0.335-0.084-0.67-0.166-1.005-0.25c-0.712-0.156-1.423-0.311-2.135-0.467c-0.227-0.201-0.508-0.177-0.78-0.188
		c-0.822-0.305-1.669-0.506-2.54-0.603c-0.225-0.2-0.507-0.172-0.775-0.194c-0.904-0.275-1.8-0.709-2.751-0.16
		c-0.477-0.026-0.906,0.164-1.349,0.291c-1.242,0.313-2.484,0.625-3.727,0.938c-0.457,0.118-0.914,0.237-1.371,0.356
		c-1.319,0.254-2.623,0.574-3.903,0.982c-0.478,0.034-0.938,0.135-1.368,0.35c-1.326,0.236-2.634,0.545-3.908,0.988
		c-0.475-0.027-0.903,0.164-1.346,0.291c-1.229,0.299-2.463,0.58-3.687,0.9C8.952,98.459,5.901,99.077,2.93,100
		c-0.391,0-0.781,0-1.172,0C1.01,99.662,0.49,99.066,0,98.438c0-22.266,0-44.53,0-66.796c0.299-0.239,0.352,0.078,0.459,0.218
		c0.362,0.472,0.709,0.956,1.062,1.435c0.063,0.238,0.195,0.428,0.394,0.573c0.269,0.543,0.618,1.03,1.018,1.484
		c0.125,0.316,0.31,0.59,0.567,0.813c0.346,0.509,0.69,1.019,1.035,1.528c0.063,0.262,0.126,0.525,0.188,0.787
		c-0.002,0.975-0.004,1.95-0.006,2.925c0.002,0.327,0.004,0.654,0.007,0.981c-0.003,0.975-0.005,1.95-0.007,2.925
		c0.002,0.327,0.005,0.654,0.007,0.981c-0.002,0.975-0.005,1.95-0.007,2.925c0.002,0.327,0.004,0.654,0.007,0.98
		c-0.003,0.976-0.005,1.951-0.007,2.926c0.002,0.326,0.005,0.653,0.007,0.979c-0.002,0.977-0.005,1.951-0.007,2.926
		c0.002,0.326,0.005,0.654,0.007,0.98c-0.002,0.977-0.005,1.951-0.007,2.926c0.002,0.326,0.004,0.654,0.007,0.98
		c-0.003,0.975-0.005,1.95-0.008,2.926c0.002,0.326,0.004,0.654,0.007,0.98c-0.002,0.976-0.004,1.951-0.007,2.926
		c0.003,0.326,0.005,0.654,0.007,0.98c-0.002,0.976-0.004,1.95-0.006,2.926c0.002,0.326,0.004,0.654,0.007,0.979
		c-0.003,0.976-0.005,1.951-0.007,2.927c0.002,0.325,0.004,0.653,0.007,0.979c-0.003,0.976-0.005,1.951-0.007,2.926
		c0.002,0.326,0.005,0.654,0.007,0.979c-0.002,0.977-0.005,1.951-0.007,2.927c0.002,0.325,0.005,0.653,0.007,0.979
		c-0.002,0.976-0.005,1.951-0.007,2.926c0.002,0.326,0.005,0.654,0.007,0.98c-0.002,0.975-0.005,1.951-0.007,2.926
		c0.002,0.326,0.004,0.654,0.007,0.98c-0.089,1.501-0.087,1.506,1.309,1.156c0.467-0.117,0.926-0.269,1.388-0.403
		c0.476-0.042,0.938-0.132,1.368-0.351c1.326-0.232,2.634-0.543,3.907-0.986c0.477,0.025,0.907-0.162,1.35-0.293
		c1.241-0.313,2.483-0.625,3.725-0.938c0.457-0.117,0.915-0.236,1.372-0.354c1.319-0.255,2.623-0.575,3.903-0.983
		c0.477-0.037,0.938-0.135,1.368-0.35c1.326-0.234,2.634-0.545,3.907-0.986c0.481,0.02,0.919-0.156,1.362-0.305
		c0.189-0.033,0.381-0.061,0.568-0.104c1.842-0.418,1.842-0.418,1.752-2.33c-0.002-0.328-0.004-0.654-0.007-0.98
		c0.002-0.977,0.004-1.951,0.007-2.926c-0.003-0.327-0.005-0.654-0.008-0.98c0.003-0.976,0.005-1.951,0.007-2.926
		c-0.002-0.327-0.004-0.654-0.007-0.98c0.002-0.976,0.005-1.951,0.007-2.926c-0.002-0.326-0.004-0.654-0.007-0.98
		c0.209-0.534-0.311-1.241,0.421-1.661c0.919-0.527,1.82-1.085,2.729-1.63c0.016,0.187,0.031,0.373,0.047,0.562
		c-0.002,0.976-0.005,1.951-0.007,2.927c0.002,0.325,0.005,0.653,0.007,0.979c-0.002,0.976-0.005,1.951-0.007,2.926
		c0.002,0.326,0.005,0.654,0.007,0.979c-0.002,0.977-0.005,1.951-0.007,2.927c0.002,0.326,0.005,0.653,0.007,0.979
		c-0.002,0.977-0.005,1.951-0.007,2.926c0.002,0.326,0.005,0.654,0.007,0.98c-0.106,1.801-0.106,1.801,1.522,1.971
		c0.222,0.211,0.503,0.188,0.777,0.196c0.764,0.271,1.542,0.479,2.351,0.554c0.236,0.164,0.498,0.229,0.783,0.199
		c0.759,0.277,1.543,0.449,2.341,0.563c0.262,0.065,0.523,0.133,0.785,0.2c0.772,0.186,1.545,0.371,2.317,0.558
		c0.334,0.076,0.669,0.149,1.003,0.228c0.708,0.17,1.415,0.342,2.122,0.512c0.335,0.084,0.67,0.168,1.004,0.252
		c0.712,0.154,1.424,0.311,2.136,0.465c0.226,0.203,0.507,0.178,0.778,0.188c0.822,0.309,1.671,0.504,2.541,0.604
		c0.225,0.198,0.507,0.17,0.774,0.192c0.769,0.267,1.546,0.484,2.359,0.549c0.228,0.195,0.502,0.205,0.78,0.197
		c0.761,0.277,1.543,0.461,2.345,0.561c0.245,0.128,0.496,0.236,0.784,0.197c0.67,0.234,1.354,0.404,2.063,0.476
		c0.213-1.599,0.213-1.599,1.844-1.619c0.063-0.001,0.127-0.021,0.191-0.028c0.326,0.004,0.652,0.008,0.979,0.01
		c0.449,0.504,0,1.16,0.313,1.744c0.409-0.121,0.828-0.244,1.248-0.367c0.462,0.049,0.878-0.148,1.313-0.246
		c1.263-0.281,2.547-0.477,3.775-0.898c0.405,0.01,0.795-0.063,1.162-0.238c1.234-0.272,2.471-0.547,3.706-0.819
		c0.464-0.085,0.942-0.104,1.371-0.336c1.259-0.173,2.485-0.486,3.708-0.818c0.469-0.057,0.938-0.11,1.367-0.323
		c1.26-0.18,2.494-0.47,3.712-0.832c0.476,0.014,0.916-0.145,1.358-0.285c1.32-0.289,2.637-0.604,3.965-0.851
		c0.478-0.089,0.549-0.321,0.539-0.727c-0.024-0.999-0.021-1.998-0.029-2.998c-0.002-0.327-0.006-0.654-0.008-0.979
		c0.002-0.977,0.004-1.951,0.007-2.927c-0.003-0.327-0.005-0.653-0.007-0.979c0.002-0.977,0.004-1.951,0.007-2.926
		c-0.003-0.328-0.005-0.654-0.007-0.98c0.002-0.977,0.004-1.951,0.007-2.926c-0.003-0.327-0.005-0.654-0.007-0.98
		c0.002-0.977,0.004-1.951,0.007-2.926c0.01-0.404,0.065-0.797,0.272-1.154c1.269-1.803,2.529-3.609,3.813-5.402
		c0.148-0.205,0.179-0.646,0.632-0.477c0,9.635,0,19.271,0,28.906c-0.406,0.43-0.69,0.972-1.194,1.313
		c-0.445,0.133-0.894,0.266-1.341,0.397c-1.257,0.196-2.499,0.461-3.714,0.844c-0.449,0.088-0.898,0.177-1.348,0.267
		c-1.252,0.266-2.518,0.469-3.731,0.886c-0.458-0.048-0.873,0.134-1.301,0.243c-1.192,0.271-2.386,0.541-3.577,0.813
		c-0.457,0.109-0.915,0.219-1.373,0.329c-1.234,0.272-2.471,0.544-3.707,0.815c-0.463,0.088-0.943,0.102-1.37,0.336
		c-1.899,0.404-3.811,0.762-5.694,1.227C70.16,99.242,68.611,99.383,67.188,100z"/>
	<path fill="#0070C3" d="M35.141,15.819c0.007,0.977,0.014,1.954,0.021,2.93c-0.056,0.392-0.111,0.783-0.166,1.174
		c-0.269,1.336-0.637,2.645-1.115,3.922c-0.291,0.645-0.581,1.291-0.871,1.936c-1.687,2.899-3.747,5.551-5.548,8.375
		c-0.777,0.996-1.498,2.03-2.136,3.121c-2.287,3.149-4.487,6.359-6.636,9.604c-0.175,0.186-0.35,0.372-0.524,0.558
		c-0.889,0.281-1.443-0.189-1.913-0.851c-0.063-0.238-0.193-0.43-0.392-0.576c-0.27-0.542-0.615-1.031-1.018-1.481
		c-0.125-0.317-0.31-0.592-0.567-0.815c-0.346-0.508-0.69-1.017-1.035-1.526c-0.183-0.259-0.366-0.517-0.55-0.776
		c-0.302-0.579-0.667-1.114-1.104-1.601c-0.074-0.234-0.195-0.436-0.405-0.575c-0.323-0.636-0.729-1.214-1.201-1.749
		c-0.129-0.323-0.308-0.611-0.578-0.837c-0.266-0.548-0.619-1.036-1.021-1.489c-0.097-0.141-0.192-0.282-0.288-0.422
		c-0.409-0.718-0.865-1.404-1.408-2.029c-0.024-0.133-0.063-0.255-0.214-0.297c-0.317-0.639-0.733-1.211-1.192-1.752
		c-0.126-0.318-0.311-0.595-0.571-0.818c-0.331-0.623-0.72-1.207-1.184-1.739c-0.079-0.124-0.159-0.248-0.238-0.372
		c-1.442-2.479-2.68-5.038-3.135-7.909c-0.006-0.04-0.099-0.065-0.15-0.098c0-1.498,0-2.995,0-4.492
		C0.364,15,0.238,14.589,0.313,14.268C1.995,7.014,6.42,2.416,13.602,0.458C14.146,0.309,14.749,0.362,15.234,0
		c1.497,0,2.995,0,4.492,0c0.56,0.33,1.208,0.307,1.813,0.447c2.234,0.518,4.252,1.513,6.181,2.719
		c0.186,0.147,0.372,0.294,0.558,0.441c0.528,0.444,1.056,0.888,1.584,1.332c0.119,0.118,0.237,0.236,0.356,0.354
		c0.442,0.528,0.887,1.056,1.33,1.583c0.146,0.187,0.294,0.373,0.44,0.56c0.355,0.58,0.711,1.16,1.065,1.739
		c0.109,0.198,0.219,0.396,0.329,0.594c0.282,0.713,0.564,1.427,0.848,2.141c0.097,0.267,0.192,0.534,0.289,0.801
		c0.159,0.775,0.318,1.55,0.478,2.326C34.969,15.312,34.988,15.578,35.141,15.819z M26.282,21.511
		c0.315-0.56,0.589-1.134,0.65-1.786c0.395-1.075,0.478-2.184,0.351-3.314c0.061-0.282-0.01-0.54-0.142-0.787
		c0.018-0.841-0.304-1.591-0.634-2.339c-0.077-0.215-0.119-0.449-0.326-0.593c-0.23-0.69-0.646-1.259-1.157-1.766
		c-0.121-0.258-0.312-0.452-0.553-0.598c-0.49-0.608-1.081-1.09-1.788-1.426c-0.165-0.175-0.349-0.316-0.6-0.338
		c-0.646-0.45-1.368-0.705-2.143-0.82c-0.239-0.178-0.514-0.167-0.79-0.149c-1.047-0.276-2.092-0.279-3.138,0.006
		c-0.414-0.046-0.803,0.042-1.171,0.231c-3.317,0.976-5.463,3.151-6.557,6.403c-0.147,0.452-0.344,0.895-0.272,1.39
		c-0.288,0.977-0.283,1.956-0.026,2.937c-0.002,0.339-0.038,0.685,0.198,0.975c0.079,0.785,0.367,1.49,0.803,2.141
		c0.037,0.248,0.157,0.447,0.355,0.599c0.265,0.619,0.669,1.131,1.187,1.558c0.194,0.331,0.474,0.573,0.803,0.762
		c0.429,0.44,0.91,0.803,1.491,1.021c0.224,0.236,0.515,0.339,0.817,0.419c0.742,0.398,1.524,0.657,2.372,0.695
		c0.322,0.094,0.639,0.224,0.985,0.137c1.065,0.135,2.102,0,3.115-0.34c0.646-0.087,1.235-0.322,1.786-0.664
		C23.882,24.939,25.325,23.47,26.282,21.511z"/>
	<path fill="#0070C3" d="M100,46.289c0,1.432,0,2.865,0,4.297c-0.052,0.032-0.145,0.059-0.15,0.098
		c-0.479,3.035-1.82,5.719-3.399,8.303c-0.708,0.935-1.392,1.886-1.97,2.906c-2.293,3.143-4.484,6.353-6.631,9.596
		c-0.789,0.984-1.494,2.023-2.133,3.111c-0.697,0.974-1.429,1.926-2.078,2.93c-0.398,0.615-0.873,0.935-1.604,0.836
		c-0.196-0.145-0.394-0.288-0.589-0.434c-0.319-0.459-0.639-0.918-0.957-1.377c-0.125-0.322-0.313-0.602-0.577-0.826
		c-0.263-0.555-0.625-1.041-1.022-1.502c-0.188-0.268-0.375-0.533-0.562-0.801c-0.347-0.516-0.693-1.029-1.041-1.545
		c-0.147-0.207-0.296-0.414-0.444-0.621c-0.348-0.621-0.734-1.217-1.215-1.748c-0.07-0.236-0.193-0.438-0.402-0.576
		c-0.324-0.635-0.732-1.211-1.199-1.748c-0.131-0.314-0.299-0.604-0.567-0.823c-0.306-0.601-0.694-1.142-1.134-1.648
		c-0.067-0.092-0.137-0.184-0.203-0.274c-0.322-0.639-0.729-1.217-1.199-1.754c-0.124-0.324-0.313-0.604-0.578-0.83
		c-0.26-0.556-0.623-1.037-1.021-1.498c-0.122-0.314-0.308-0.584-0.56-0.809c-0.33-0.515-0.658-1.027-0.986-1.542
		c-0.176-0.301-0.351-0.603-0.525-0.903c-0.277-0.547-0.555-1.092-0.832-1.64c-0.023-0.305-0.159-0.563-0.344-0.798
		c-0.229-0.708-0.457-1.417-0.686-2.125c-0.07-0.271-0.141-0.542-0.211-0.813c-0.117-0.838-0.236-1.673-0.354-2.509
		c-0.006-0.327-0.01-0.653-0.016-0.98c0.106-1.045,0.213-2.09,0.318-3.136c0.1-0.451,0.198-0.902,0.298-1.354
		c0.656-1.93,1.483-3.778,2.624-5.476c1.215-1.591,2.615-2.994,4.208-4.207c1.697-1.144,3.548-1.969,5.478-2.626
		c0.451-0.099,0.902-0.198,1.354-0.297c1.046-0.106,2.091-0.212,3.138-0.318c0.326,0.004,0.652,0.008,0.979,0.012
		c0.84,0.093,1.681,0.186,2.521,0.278c0.232,0.169,0.51,0.157,0.776,0.179c0.789,0.244,1.577,0.488,2.366,0.732
		c0.146,0.18,0.355,0.212,0.566,0.235c0.648,0.338,1.299,0.676,1.946,1.014c0.158,0.184,0.353,0.31,0.593,0.357
		c0.522,0.379,1.047,0.759,1.569,1.138c0.146,0.126,0.293,0.252,0.438,0.378c0.521,0.519,1.039,1.038,1.559,1.556
		c0.184,0.204,0.365,0.407,0.548,0.61c1.601,2.169,2.847,4.507,3.46,7.157C99.689,45.079,99.671,45.729,100,46.289z M83.789,57.619
		c3.97-0.23,7.971-4.223,8.227-8.207c0.211-0.373,0.159-0.774,0.129-1.174c0.084-0.873-0.008-1.725-0.308-2.552
		c-0.022-0.271,0.002-0.558-0.231-0.766c-0.16-0.871-0.58-1.617-1.113-2.306c-0.063-0.084-0.124-0.168-0.188-0.252
		c-0.341-0.631-0.816-1.141-1.396-1.561c-0.188-0.303-0.47-0.496-0.786-0.645c-0.586-0.506-1.23-0.903-1.99-1.096
		c-0.145-0.194-0.357-0.208-0.572-0.22c-0.808-0.381-1.662-0.536-2.55-0.523c-0.327-0.003-0.653-0.007-0.981-0.011
		c-1.471,0.002-2.85,0.346-4.109,1.121c-1.861,0.882-3.232,2.253-4.104,4.123c-0.787,1.254-1.082,2.644-1.118,4.103
		c0.007,0.328,0.015,0.656,0.021,0.984c-0.006,0.819,0.149,1.607,0.456,2.366c0.042,0.272,0.099,0.539,0.287,0.755
		c0.226,0.739,0.591,1.398,1.116,1.969c0.136,0.313,0.314,0.588,0.615,0.77c0.346,0.495,0.765,0.911,1.3,1.201
		c0.137,0.201,0.317,0.34,0.554,0.404c0.669,0.529,1.407,0.92,2.249,1.101c0.229,0.181,0.492,0.249,0.782,0.224
		c0.82,0.299,1.665,0.398,2.533,0.316C83.014,57.795,83.411,57.8,83.789,57.619z"/>
	<path fill="#0070C3" d="M61.134,17.765c0.761,0.271,1.543,0.448,2.341,0.563c0.262,0.066,0.523,0.132,0.785,0.199
		c0.842,0.167,1.631,0.652,2.536,0.407c0.472,0.037,0.896-0.156,1.341-0.257c1.252-0.274,2.522-0.47,3.739-0.893
		c0.456,0.043,0.87-0.131,1.297-0.245c1.269-0.266,2.55-0.481,3.785-0.892c0.403-0.014,0.804-0.047,1.168-0.25
		c1.235-0.272,2.472-0.545,3.707-0.817c0.464-0.079,0.94-0.104,1.369-0.333c1.26-0.171,2.489-0.478,3.71-0.823
		c0.473-0.028,0.93-0.124,1.365-0.313c1.256-0.2,2.498-0.459,3.714-0.845c0.473,0.033,0.901-0.159,1.347-0.265
		c1.252-0.264,2.516-0.477,3.732-0.887c0.326-0.003,0.65-0.007,0.977-0.01C99,12.357,99.591,13.012,100,13.867
		c0,6.836,0,13.672,0,20.508c-0.445,0.229-0.493-0.241-0.669-0.418c-0.668-0.679-1.233-1.46-2.039-2
		c-0.2-0.18-0.399-0.361-0.601-0.541c-0.461-0.38-0.922-0.761-1.383-1.141c-0.012-0.262-0.021-0.523-0.033-0.785
		c0.002-0.975,0.006-1.95,0.008-2.925c-0.002-0.327-0.006-0.654-0.008-0.981c0.002-0.975,0.006-1.95,0.008-2.925
		c-0.002-0.327-0.006-0.654-0.008-0.981c0.002-0.975,0.006-1.95,0.008-2.925c-0.063-0.436,0.275-0.927-0.18-1.309
		c-1.303,0.286-2.623,0.496-3.893,0.923c-0.467-0.043-0.888,0.151-1.327,0.251c-1.255,0.283-2.532,0.468-3.754,0.896
		c-0.411-0.026-0.797,0.077-1.172,0.235c-1.323,0.234-2.64,0.505-3.926,0.901c-0.396,0.03-0.796,0.038-1.15,0.253
		c-1.257,0.177-2.483,0.488-3.708,0.817c-0.467,0.067-0.938,0.109-1.367,0.329c-1.261,0.177-2.492,0.471-3.711,0.828
		c-0.283,0.049-0.568,0.089-0.849,0.147c-2.39,0.496-2.39,0.497-2.243,2.955c-0.002,0.976-0.005,1.951-0.007,2.926
		c0.002,0.327,0.005,0.654,0.007,0.981c-0.165,0.582,0.255,1.301-0.23,1.763c-0.976,0.927-1.903,1.897-2.879,3.024
		c-0.035-0.463-0.059-0.77-0.08-1.077c-0.004-0.327-0.006-0.654-0.008-0.981c0.002-0.975,0.004-1.95,0.008-2.925
		c-0.002-0.327-0.006-0.654-0.008-0.981c0.002-0.975,0.004-1.95,0.008-2.925c-0.004-0.327-0.006-0.654-0.008-0.981
		c0.279-1.059-0.203-1.521-1.223-1.575c-0.159-0.008-0.316-0.054-0.475-0.083c-0.334-0.083-0.67-0.167-1.004-0.25
		c-0.707-0.179-1.398-0.427-2.137-0.466c-0.226-0.204-0.507-0.176-0.777-0.188c-0.823-0.301-1.672-0.501-2.543-0.603
		c-0.225-0.2-0.506-0.171-0.773-0.193c-0.768-0.266-1.546-0.485-2.359-0.547c-0.229-0.193-0.502-0.208-0.781-0.198
		c-0.76-0.278-1.541-0.46-2.343-0.56c-0.245-0.13-0.496-0.237-0.783-0.199c-0.78-0.188-1.561-0.375-2.34-0.563
		c-0.263-0.066-0.524-0.132-0.787-0.198c-0.771-0.184-1.543-0.368-2.314-0.551c-0.335-0.079-0.67-0.158-1.005-0.236
		c-0.71-0.163-1.419-0.325-2.128-0.487c-0.313-0.085-0.628-0.171-0.941-0.257c-0.554-0.53-0.062-1.271-0.373-1.85
		c-0.033-0.318-0.066-0.637-0.1-0.955c0.004-0.032,0.009-0.063,0.012-0.095c0.047-0.687-0.556-1.528-0.114-1.959
		c0.276-0.27,1.234,0.16,1.888,0.275c0.248,0.118,0.496,0.237,0.784,0.197c0.779,0.188,1.56,0.376,2.339,0.564
		c0.263,0.066,0.524,0.132,0.787,0.199c0.771,0.183,1.543,0.365,2.314,0.548c0.335,0.079,0.67,0.159,1.005,0.238
		c0.71,0.16,1.421,0.319,2.131,0.479c0.229,0.188,0.51,0.163,0.776,0.187c0.825,0.297,1.676,0.492,2.544,0.611
		c0.257,0.063,0.514,0.126,0.771,0.189c0.772,0.248,1.551,0.478,2.365,0.539c0.226,0.21,0.508,0.19,0.783,0.197
		c0.758,0.287,1.542,0.459,2.346,0.554C60.588,17.724,60.848,17.796,61.134,17.765z"/>
	<path fill="#0070C3" d="M40.629,56.848c0.482-0.039,0.931-0.191,1.363-0.402c0.681-0.063,1.32,0.078,1.919,0.404
		c0.215,0.314,0.569,0.515,0.772,0.959c0.245-1.152,0.988-1.766,1.994-2.115c0.908,0.007,1.816,0.013,2.725,0.019
		c0.313,0.17,0.652,0.146,0.989,0.144c0.781,0.195,1.563,0.393,2.343,0.588c0.195,0.133,0.391,0.265,0.584,0.396
		c0.39,0.457,0.679,0.967,0.802,1.559c-0.043,0.236-0.087,0.472-0.14,0.759c0.537,0.053,0.94-0.439,1.471-0.435
		c0.619-0.012,1.177,0.205,1.711,0.492c0.189,0.193,0.379,0.387,0.568,0.579c0.397,0.585,0.797,1.169,1.195,1.753
		c0.137,0.279,0.271,0.559,0.407,0.836c0.196,0.629,0.396,1.26,0.593,1.889c0.03,0.322,0.061,0.646,0.09,0.968
		c-0.097,1.241-0.795,1.995-2.066,2.393c0.648,0.345,1.072,0.787,1.378,1.339c0.047,0.254,0.093,0.508,0.139,0.762
		c-0.127,1.389-0.789,2.615-1.178,3.926c-0.22,0.578-0.438,1.158-0.656,1.736c-0.468,0.725-1.185,1.102-2.136,1.348
		c0.986,0.617,1.167,1.459,1.225,2.357c-0.07,0.344-0.008,0.67,0.139,0.983c0.058,0.828,0.654,1.358,1.096,1.978
		c0.072,0.188,0.145,0.379,0.216,0.567c-0.036,0.37-0.071,0.74-0.118,1.22c0.799-0.408,1.57-0.568,2.383-0.394
		c0.34,0.188,0.694,0.33,1.088,0.353c0.746,0.328,1.535,0.471,2.343,0.533c0.307,0.057,0.612,0.112,0.92,0.167
		c0.675,0.197,1.157,0.642,1.55,1.202c0.051,0.178,0.102,0.355,0.216,0.749c0.378-1.136,1.117-1.601,2.005-1.881
		c1.117-0.048,2.228-0.156,3.319-0.404c0.396,0.025,0.791,0.05,1.167-0.114c0.768-0.013,1.488,0.143,2.13,0.586
		c0.157,0.225,0.255,0.504,0.581,0.621c-0.023-0.56,0.244-0.998,0.45-1.461c0.124-0.123,0.249-0.246,0.373-0.371
		c0.581-0.265,1.161-0.529,1.743-0.793c0.941-0.168,1.76-0.652,2.607-1.048c0.602-0.28,1.206-0.469,1.868-0.467
		c0.195,0.058,0.392,0.115,0.587,0.172c0.518,0.343,0.975,0.74,1.237,1.319c0.062,0.262,0.122,0.523,0.185,0.785
		c-0.063,1.254-0.818,1.974-1.886,2.462c-0.437,0.198-0.854,0.436-1.278,0.655c-0.521,0.195-1.041,0.392-1.562,0.586
		c-0.95,0.234-1.867,0.728-2.894,0.379c-0.393-0.321-0.783-0.646-1.229-1.016c-0.162,0.774-0.496,1.448-1.144,1.922
		c-1.108,0.567-2.369,0.361-3.522,0.691c-0.396-0.023-0.794-0.057-1.169,0.124c-0.779,0.024-1.566,0.175-2.325-0.151
		c-0.188-0.132-0.374-0.264-0.562-0.395c-0.215-0.357-0.43-0.715-0.707-1.18c-0.6,1.381-1.707,1.742-3.049,1.621
		c-0.311-0.054-0.619-0.105-0.93-0.158c-0.793-0.176-1.585-0.351-2.378-0.525c-0.192-0.066-0.385-0.133-0.577-0.199
		c-0.593-0.279-1.232-0.472-1.723-0.938c-0.122-0.195-0.244-0.391-0.366-0.586c-0.153-0.533-0.188-1.076-0.09-1.707
		c-0.653,0.263-1.258,0.539-1.933,0.498c-0.267-0.098-0.532-0.197-0.799-0.295c-0.404-0.4-0.809-0.801-1.213-1.201
		c-0.177-0.27-0.354-0.54-0.531-0.811c-0.252-0.646-0.502-1.295-0.754-1.941c-0.041-0.266-0.08-0.529-0.121-0.795
		c-0.098-1.137-0.207-2.273,0.553-3.267c0.047-0.047,0.094-0.094,0.141-0.141c0.346-0.164,0.688-0.33,1.034-0.49
		c0.155-0.071,0.456,0.013,0.417-0.254c-0.021-0.137-0.27-0.237-0.414-0.354c-0.137-0.189-0.273-0.377-0.41-0.564
		c-0.48-1.176,0.088-2.227,0.396-3.307c0.248-0.492,0.46-0.998,0.537-1.549c0.164-0.377,0.363-0.744,0.483-1.135
		c0.304-0.971,0.923-1.589,2.011-1.863c-0.508-0.351-0.946-0.685-1.248-1.152c-0.097-0.247-0.193-0.494-0.291-0.74
		c-0.014-0.805-0.275-1.521-0.774-2.15c-0.103-0.334-0.325-0.578-0.587-0.795c-0.362-0.641-0.665-1.299-0.584-2.063
		c-0.354-0.063-0.563,0.147-0.791,0.305c-0.325,0.017-0.651,0.033-0.977,0.05c-0.84-0.168-1.652-0.49-2.528-0.457
		c-0.246-0.173-0.521-0.134-0.793-0.109c-0.758-0.092-1.544,0.049-2.271-0.283c-0.358-0.307-0.717-0.615-1.086-0.932
		c-0.183,0.479-0.448,1.047-0.93,1.47c-1.698,0.735-3.479,1.271-5.119,2.142c-0.314,0.032-0.629,0.064-0.942,0.096
		c-0.469-0.196-0.938-0.396-1.479-0.625c0.329,1.345-0.303,2.211-1.333,2.896c-1.05,0.697-2.093,1.403-3.118,2.136
		c-0.631,0.448-1.309,0.686-2.078,0.663c-0.42-0.229-0.896-0.354-1.422-0.911c0.304,1.909-0.669,2.771-2.072,3.321
		c-1.408,0.595-2.854,1.078-4.317,1.513c-0.257-0.016-0.514-0.029-0.771-0.045c-0.689-0.295-1.308-0.675-1.743-1.595
		c-0.299,1.071-0.936,1.646-1.787,1.992c-0.325,0.015-0.649,0.028-0.975,0.043c-0.686-0.152-1.37-0.308-2.055-0.46
		c-0.291-0.114-0.581-0.229-0.872-0.344c-0.52-0.323-1.039-0.647-1.559-0.973c-0.248-0.225-0.497-0.449-0.745-0.676
		c-0.395-0.499-0.783-1.002-0.863-1.664c0.021-0.324,0.042-0.65,0.063-0.977c0.268-0.356,0.416-0.795,0.894-1.137
		c-0.842-0.24-1.545-0.517-2.029-1.144c-0.081-0.153-0.162-0.308-0.243-0.459c-0.171-0.916-0.045-1.826,0.043-2.737
		c0.11-0.453,0.221-0.908,0.331-1.361c0.286-0.65,0.57-1.301,0.861-1.949c0.487-1.084,1.288-1.703,2.518-1.584
		c0.529,0.051,0.625-0.1,0.463-0.582c-0.37-1.102,0.024-2.02,0.896-2.661c1.092-0.804,2.022-2.017,3.643-1.735
		c0.157,0.053,0.314,0.106,0.472,0.16c0.551,0.404,0.978,0.912,1.268,1.533c0.024,0.32,0.05,0.641,0.074,0.961
		c-0.52,1.713-2.133,2.301-3.368,3.277c-0.556,0-1.11,0-1.741,0c0.243,0.545,0.393,0.961,0.42,1.41
		c-0.131,0.393-0.236,0.797-0.396,1.178c-0.396,0.941-0.865,1.857-0.816,2.923c-0.068,0.388-0.136,0.774-0.204,1.163
		c-0.269,0.367-0.537,0.734-0.888,1.217c0.94-0.203,1.395,0.436,1.984,0.788c0.17,0.138,0.339,0.274,0.509,0.411
		c0.715,0.623,1.625,0.65,2.488,0.824c0.203,0.098,0.406,0.194,0.609,0.293c0.303,0.365,0.606,0.731,0.924,1.117
		c0.243-1.064,0.96-1.623,1.951-1.923c0.549-0.165,1.081-0.391,1.62-0.59c0.634-0.131,1.212-0.396,1.757-0.735
		c1.08-0.414,2.131-0.498,3.164,0.406c-0.177-1.466,0.496-2.314,1.563-2.994c1.004-0.64,1.952-1.365,2.924-2.055
		c0.511-0.218,1.021-0.438,1.532-0.654c0.639,0.032,1.205,0.288,1.761,0.577c0.031,0.041,0.063,0.08,0.096,0.121
		c0.007-0.04,0.014-0.08,0.021-0.119c-0.044,0.009-0.088,0.017-0.132,0.022c-0.024-1.913,1.157-2.82,2.783-3.395
		C39.235,57.504,39.925,57.154,40.629,56.848z"/>
	<path fill="#0070C3" d="M35.005,31.299c0.058,0.049,0.115,0.098,0.172,0.147c0.003,0.976,0.006,1.951,0.009,2.927
		c0.002,0.327,0.005,0.654,0.007,0.98c-0.002,0.976-0.005,1.951-0.007,2.926c0.002,0.327,0.005,0.654,0.007,0.98
		c-0.002,0.976-0.005,1.951-0.007,2.926c0.002,0.327,0.005,0.654,0.007,0.98c-0.002,0.976-0.005,1.951-0.007,2.926
		c0.002,0.327,0.005,0.654,0.007,0.981c-0.002,0.975-0.005,1.95-0.007,2.925c0.002,0.326,0.005,0.653,0.007,0.979
		c-0.002,0.976-0.005,1.951-0.007,2.926c0.002,0.326,0.005,0.654,0.007,0.98c-0.086,0.326-0.473,0.318-0.63,0.564
		c-0.848,0.326-1.61,0.801-2.331,1.347c-0.466-0.659-0.053-1.415-0.229-2.106c-0.002-0.326-0.005-0.653-0.007-0.979
		c0.002-0.976,0.005-1.951,0.007-2.926c-0.002-0.327-0.005-0.654-0.007-0.981c0.002-0.975,0.005-1.95,0.007-2.925
		c-0.002-0.328-0.005-0.654-0.007-0.981c0.002-0.975,0.005-1.95,0.007-2.925c-0.002-0.327-0.005-0.654-0.007-0.981
		c0.002-0.975,0.005-1.95,0.007-2.925c-0.002-0.327-0.005-0.654-0.007-0.981c0.031-1.292-0.128-2.631,0.889-3.686
		C33.662,33.414,34.366,32.379,35.005,31.299z"/>
	<path fill="#0070C3" d="M67.966,80.661c-0.391,0.026-0.78,0.054-1.173,0.081c-0.643-0.178-1.346,0.094-1.961-0.271
		c-0.009-0.328-0.018-0.654-0.023-0.979c0.002-0.976,0.004-1.951,0.006-2.927c-0.002-0.325-0.004-0.653-0.006-0.979
		c0.002-0.976,0.004-1.951,0.008-2.926c-0.002-0.326-0.006-0.654-0.008-0.981c0.002-0.976,0.004-1.949,0.006-2.925
		c-0.002-0.327-0.004-0.653-0.006-0.979c0.002-0.977,0.004-1.951,0.006-2.926c-0.002-0.328-0.004-0.654-0.006-0.98
		c0-0.51,0-1.02,0-1.734c0.34,0.391,0.553,0.635,0.765,0.881c0.028,0.123,0.055,0.248,0.206,0.281
		c0.322,0.637,0.729,1.215,1.195,1.752c0.127,0.322,0.313,0.602,0.578,0.826c0.571,0.609,0.359,1.385,0.445,2.096
		c0.002,0.326,0.004,0.654,0.007,0.98C68.002,69.925,68,70.9,67.998,71.875c0.002,0.326,0.004,0.654,0.007,0.98
		c-0.002,0.975-0.005,1.951-0.007,2.926c0.002,0.326,0.005,0.654,0.007,0.979c-0.003,0.976-0.005,1.95-0.008,2.927
		C67.986,80.01,67.977,80.336,67.966,80.661z"/>
</g>
</svg>
