<?xml version="1.0" encoding="utf-8"?>
<!-- Generator: Adobe Illustrator 16.0.0, SVG Export Plug-In . SVG Version: 6.00 Build 0)  -->
<!DOCTYPE svg PUBLIC "-//W3C//DTD SVG 1.1//EN" "http://www.w3.org/Graphics/SVG/1.1/DTD/svg11.dtd">
<svg version="1.1" id="Layer_1" xmlns="http://www.w3.org/2000/svg" xmlns:xlink="http://www.w3.org/1999/xlink" x="0px" y="0px"
	 width="100px" height="100px" viewBox="0 0 100 100" enable-background="new 0 0 100 100" xml:space="preserve">
<path fill="#9F9F9F" d="M59.41,55.729c1.681-1.391,3.451-2.405,5.236-3.398c0.586-0.253,1.174-0.507,1.76-0.76
	c1.367-0.397,2.734-0.795,4.101-1.192c0.408,0.04,0.795-0.053,1.173-0.192c1.041-0.073,2.082-0.146,3.123-0.219
	c0.326,0.003,0.653,0.006,0.98,0.009c0.91,0.074,1.82,0.149,2.73,0.225c0.239,0.159,0.506,0.191,0.784,0.164
	c0.779,0.188,1.56,0.377,2.341,0.564c0.262,0.075,0.521,0.151,0.783,0.229c0.715,0.27,1.43,0.537,2.145,0.807
	c0.219,0.217,0.488,0.324,0.785,0.373c0.514,0.266,1.026,0.533,1.541,0.799c0.289,0.266,0.616,0.469,0.991,0.592
	c0.513,0.353,1.025,0.703,1.539,1.054c0.205,0.153,0.411,0.31,0.617,0.465c0.512,0.424,1.022,0.849,1.535,1.272
	c0.198,0.186,0.396,0.369,0.595,0.556c0.452,0.465,0.903,0.93,1.355,1.396c0.078,0.221,0.222,0.387,0.427,0.5
	c0.44,0.555,0.883,1.108,1.323,1.663c0.061,0.238,0.195,0.425,0.396,0.563c0.383,0.613,0.766,1.229,1.146,1.843
	c0.033,0.176,0.078,0.344,0.252,0.44c0.92,1.947,1.768,3.922,2.289,6.024c0.244,0.981,0.254,2.011,0.639,2.959
	c0,1.759,0,3.517,0,5.272c-0.301,0.106-0.182,0.382-0.221,0.582c-2.135,10.886-8.551,17.863-19.172,20.984
	c-1.064,0.313-2.176,0.471-3.265,0.699c-1.692,0-3.385,0-5.077,0c-0.033-0.051-0.062-0.143-0.102-0.146
	c-3.066-0.396-5.934-1.42-8.688-2.78c-0.098-0.175-0.268-0.22-0.442-0.255c-0.613-0.381-1.226-0.762-1.839-1.143
	c-0.139-0.203-0.326-0.34-0.566-0.4c-0.555-0.439-1.107-0.881-1.662-1.321c-0.113-0.207-0.281-0.349-0.502-0.429
	c-0.464-0.45-0.929-0.902-1.393-1.354c-0.187-0.196-0.371-0.396-0.557-0.595c-0.425-0.512-0.849-1.021-1.271-1.534
	c-0.156-0.207-0.313-0.412-0.467-0.619c-0.352-0.513-0.701-1.024-1.051-1.536c-0.123-0.375-0.326-0.701-0.593-0.992
	c-0.266-0.515-0.532-1.027-0.799-1.541c-0.196-0.365-0.063-1-0.774-0.946c-0.976,0.001-1.952,0.003-2.927,0.005
	c-0.327-0.002-0.653-0.004-0.98-0.005c-0.976,0.001-1.951,0.003-2.926,0.005c-0.327-0.002-0.653-0.004-0.98-0.005
	c-0.976,0.001-1.951,0.003-2.926,0.005c-0.327-0.002-0.653-0.004-0.98-0.005c-0.976,0.001-1.951,0.003-2.926,0.005
	c-0.327-0.002-0.653-0.004-0.98-0.005c-0.976,0.001-1.951,0.003-2.926,0.005c-0.327-0.002-0.653-0.004-0.98-0.005
	c-0.976,0.001-1.951,0.003-2.926,0.005c-0.327-0.002-0.653-0.004-0.98-0.005c-0.976,0.001-1.951,0.003-2.926,0.005
	c-0.327-0.002-0.653-0.004-0.98-0.005c-0.976,0.001-1.951,0.003-2.926,0.005c-0.327-0.002-0.653-0.004-0.98-0.005
	c-0.976,0.001-1.951,0.003-2.926,0.005c-0.327-0.002-0.653-0.004-0.98-0.005c-0.976,0.001-1.951,0.003-2.926,0.005
	c-0.327-0.002-0.653-0.004-0.98-0.005c-0.976,0.001-1.951,0.003-2.926,0.005c-0.327-0.008-0.653-0.016-0.979-0.023
	c-0.781-0.197-1.563-0.396-2.344-0.596c-0.221-0.208-0.489-0.32-0.782-0.381C5.029,83.143,4.59,82.871,4.152,82.6
	c-0.264-0.218-0.528-0.436-0.792-0.651c-1.066-1.083-2.019-2.238-2.645-3.649C0.462,77.723,0.427,77.061,0,76.563
	c0-20.834,0-41.667,0-62.5c0.462-1.028,0.924-2.057,1.385-3.085c1.055-1.44,2.289-2.689,3.836-3.604
	c1.244-0.642,2.555-1.056,3.957-1.157c0.326,0.001,0.653,0.002,0.979,0.004c0.976-0.001,1.951-0.003,2.927-0.004
	c0.326,0.001,0.653,0.003,0.979,0.004c0.976-0.001,1.951-0.003,2.926-0.004c0.327,0.001,0.653,0.003,0.98,0.005
	c1.106,0.009,2.213-0.005,3.317,0.037c0.474,0.018,0.604-0.132,0.595-0.599C21.86,4.555,21.9,3.449,21.915,2.342
	c0.189-0.386,0.379-0.772,0.568-1.159c0.492-0.52,1.117-0.846,1.734-1.181c0.521,0,1.042,0,1.563,0
	c1.072,0.49,1.923,1.195,2.309,2.357C28.113,2.679,28.137,3,28.16,3.322c-0.011,0.793-0.001,1.587-0.042,2.378
	c-0.024,0.471,0.128,0.648,0.591,0.514c0.327,0.002,0.653,0.003,0.98,0.005c0.976-0.001,1.951-0.003,2.926-0.005
	c0.327,0.002,0.653,0.003,0.98,0.005c0.976-0.001,1.951-0.003,2.926-0.005c0.327,0.002,0.653,0.003,0.98,0.005
	c0.976-0.001,1.951-0.003,2.926-0.005c0.327,0.002,0.653,0.003,0.98,0.005c0.976-0.001,1.951-0.003,2.926-0.005
	c0.327,0.002,0.653,0.003,0.98,0.005c0.976-0.001,1.951-0.003,2.926-0.005c0.327,0.002,0.653,0.003,0.98,0.005
	c0.975-0.001,1.951-0.003,2.926-0.004c0.326,0.001,0.653,0.003,0.98,0.004C54.127,6.214,55.48,6.6,56.041,6.1
	c0.643-0.576,0.17-1.948,0.177-2.974c0.067-0.392,0.136-0.784,0.202-1.175c0.452-0.953,1.262-1.51,2.172-1.952
	c0.521,0,1.041,0,1.563,0c1.363,0.607,2.297,1.541,2.375,3.124c0,0.327,0.003,0.653,0.005,0.98c-0.013,0.442,0.014,0.89-0.043,1.327
	c-0.087,0.653,0.12,0.948,0.807,0.823c0.185-0.034,0.377-0.027,0.565-0.039c0.326,0.002,0.654,0.003,0.98,0.005
	c0.975-0.001,1.951-0.003,2.926-0.005c0.326,0.002,0.653,0.003,0.98,0.005c0.975-0.001,1.951-0.003,2.926-0.005
	c0.326,0.002,0.653,0.003,0.98,0.005c0.975,0.001,1.951,0.003,2.926,0.004c0.309,0.052,0.615,0.104,0.924,0.156
	c0.727,0.242,1.454,0.484,2.182,0.726c0.203,0.106,0.404,0.213,0.606,0.319c0.577,0.42,1.153,0.841,1.731,1.262
	c0.129,0.119,0.26,0.238,0.39,0.356c0.451,0.535,0.901,1.071,1.353,1.606c0.022,0.131,0.053,0.257,0.207,0.298
	c0.32,0.654,0.643,1.308,0.963,1.962c0.026,0.272,0.058,0.543,0.246,0.763c0.073,0.911,0.146,1.822,0.221,2.733
	c0,0.327,0.003,0.653,0.005,0.98c-0.002,0.975-0.005,1.951-0.005,2.926c0,0.327,0.003,0.653,0.005,0.98
	c-0.002,0.975-0.005,1.951-0.005,2.926c0,0.327,0.003,0.653,0.005,0.98c-0.002,0.975-0.005,1.951-0.005,2.926
	c0,0.327,0.003,0.653,0.005,0.98c-0.002,0.975-0.005,1.951-0.005,2.926c0,0.327,0.003,0.653,0.005,0.98
	c-0.002,0.975-0.005,1.951-0.005,2.926c0,0.327,0.003,0.653,0.005,0.98c-0.002,0.975-0.005,1.951-0.005,2.926
	c0,0.327,0.003,0.653,0.005,0.98c-0.002,0.975-0.005,1.951-0.005,2.926c-0.067,0.392-0.135,0.783-0.202,1.175
	c-0.41,0.776-1.002,1.371-1.779,1.779c-0.394,0.067-0.782,0.135-1.176,0.203c-0.702-0.022-1.317-0.31-1.924-0.628
	c-0.2-0.2-0.4-0.4-0.601-0.6c-0.32-0.606-0.606-1.222-0.629-1.925c-0.002-0.327-0.004-0.653-0.006-0.98
	c0.002-0.976,0.004-1.951,0.006-2.926c-0.002-0.327-0.004-0.653-0.006-0.979c0.002-0.976,0.004-1.951,0.005-2.926
	c-0.001-0.327-0.003-0.653-0.005-0.98c0.002-0.976,0.004-1.951,0.005-2.926c-0.001-0.327-0.003-0.653-0.005-0.98
	c0.012-0.793,0.002-1.587,0.043-2.378c0.023-0.47-0.128-0.648-0.592-0.514c-0.326-0.002-0.652-0.003-0.98-0.005
	c-0.975,0.001-1.949,0.003-2.926,0.005c-0.326-0.002-0.652-0.003-0.98-0.005c-0.975,0.001-1.949,0.003-2.926,0.005
	c-0.326-0.002-0.652-0.003-0.979-0.005c-0.976,0.001-1.95,0.003-2.927,0.005c-0.325-0.002-0.652-0.003-0.979-0.005
	c-0.975,0.001-1.95,0.003-2.926,0.005c-0.326-0.002-0.653-0.003-0.979-0.005c-0.976,0.001-1.951,0.003-2.927,0.005
	c-0.325-0.002-0.653-0.003-0.979-0.005c-0.975,0.001-1.95,0.003-2.926,0.005c-0.326-0.002-0.653-0.003-0.98-0.005
	c-0.975,0.001-1.95,0.003-2.926,0.005c-0.327-0.002-0.653-0.003-0.98-0.005c-0.975,0.001-1.951,0.003-2.926,0.005
	c-0.327-0.002-0.653-0.003-0.98-0.005c-0.975,0.001-1.95,0.003-2.926,0.005c-0.327-0.002-0.653-0.003-0.98-0.005
	c-0.975,0.001-1.95,0.003-2.926,0.005c-0.327-0.002-0.653-0.003-0.98-0.005c-0.975,0.001-1.951,0.003-2.926,0.005
	c-0.327-0.002-0.653-0.003-0.98-0.005c-0.975,0.001-1.951,0.003-2.926,0.005c-0.327-0.002-0.653-0.003-0.98-0.005
	c-0.975,0.001-1.951,0.003-2.926,0.005c-0.327-0.002-0.653-0.003-0.98-0.005c-0.976,0.001-1.951,0.003-2.926,0.005
	c-0.327-0.002-0.653-0.003-0.98-0.005c-0.976,0.001-1.951,0.003-2.926,0.005c-0.327-0.002-0.653-0.003-0.98-0.005
	c-0.976,0.001-1.951,0.003-2.926,0.005c-0.327-0.002-0.653-0.003-0.98-0.005c-0.976,0.001-1.951,0.003-2.926,0.005
	c-0.327-0.002-0.653-0.003-0.98-0.005c-1.105-0.009-2.211,0.004-3.315-0.037c-0.471-0.017-0.613,0.125-0.596,0.596
	c0.041,1.104,0.028,2.21,0.037,3.315c0.001,0.327,0.003,0.653,0.005,0.98c-0.002,0.976-0.003,1.951-0.005,2.926
	c0.001,0.327,0.003,0.653,0.005,0.98c-0.002,0.976-0.003,1.951-0.005,2.926c0.001,0.327,0.003,0.653,0.005,0.98
	c-0.002,0.976-0.003,1.951-0.005,2.926c0.001,0.327,0.003,0.653,0.005,0.98c-0.002,0.976-0.003,1.951-0.005,2.926
	c0.001,0.327,0.003,0.653,0.005,0.98c-0.002,0.976-0.003,1.951-0.005,2.926c0.001,0.327,0.003,0.653,0.005,0.98
	c-0.002,0.975-0.003,1.951-0.005,2.926c0.001,0.327,0.003,0.654,0.005,0.98c-0.002,0.976-0.003,1.951-0.005,2.926
	c0.001,0.327,0.003,0.654,0.005,0.98c-0.002,0.976-0.003,1.95-0.005,2.926c0.001,0.326,0.003,0.654,0.005,0.979
	c-0.002,0.976-0.003,1.951-0.005,2.927c0.001,0.326,0.003,0.653,0.005,0.979c-0.002,0.976-0.003,1.95-0.005,2.926
	c0.001,0.327,0.003,0.654,0.005,0.979c-0.002,0.976-0.003,1.951-0.005,2.927c-0.024,0.34-0.092,0.685,0.12,0.994
	c0.075,0.903,0.524,1.524,1.386,1.831c0.316,0.16,0.641,0.287,1.006,0.248c0.91,0.007,1.82,0.013,2.729,0.019
	c0.327,0.002,0.653,0.004,0.98,0.005c0.976-0.001,1.951-0.003,2.926-0.005c0.327,0.002,0.653,0.004,0.98,0.005
	c0.976-0.001,1.951-0.003,2.926-0.005c0.327,0.002,0.653,0.004,0.98,0.005c0.976-0.001,1.951-0.003,2.926-0.005
	c0.327,0.002,0.653,0.004,0.98,0.005c0.976-0.001,1.951-0.003,2.926-0.005c0.327,0.002,0.653,0.004,0.98,0.005
	c0.976-0.001,1.951-0.003,2.926-0.005c0.327,0.002,0.653,0.004,0.98,0.005c0.975-0.001,1.951-0.003,2.926-0.005
	c0.327,0.002,0.653,0.004,0.98,0.005c0.976-0.001,1.951-0.003,2.926-0.005c0.327,0.002,0.653,0.004,0.98,0.006
	c0.976-0.002,1.951-0.004,2.926-0.006c0.327,0.002,0.653,0.004,0.98,0.006c0.975-0.002,1.951-0.004,2.926-0.006
	c0.327,0.002,0.653,0.004,0.979,0.006c0.032,0.005,0.063,0.015,0.095,0.015c0.793-0.01,1.838,0.341,2.3-0.137
	c0.352-0.365-0.025-1.436-0.078-2.191c-0.003-0.325-0.006-0.652-0.009-0.979c0.073-1.041,0.146-2.082,0.219-3.123
	c0.14-0.378,0.232-0.765,0.192-1.173c0.397-1.366,0.795-2.733,1.192-4.101c0.252-0.586,0.507-1.174,0.76-1.76
	c1.632-3.103,3.646-5.918,6.429-8.361 M64.842,12.53c-2.428-0.116-2.428-0.116-2.313,2.312c0.002,0.327,0.002,0.653,0.003,0.979
	c-0.274,1.699-1.261,2.686-2.96,2.96c-0.322-0.022-0.643-0.045-0.965-0.067c-0.568-0.24-1.101-0.541-1.57-0.944
	c-0.105-0.137-0.213-0.274-0.32-0.411c-0.432-0.786-0.5-1.643-0.496-2.515c-0.002-0.327-0.004-0.653-0.006-0.979
	c0.08-1.367,0.08-1.369-1.259-1.363c-0.284,0.001-0.567,0.021-0.853,0.033c-0.326-0.002-0.653-0.003-0.98-0.005
	c-0.975,0.001-1.95,0.003-2.926,0.005c-0.327-0.002-0.653-0.003-0.98-0.005c-0.975,0.001-1.95,0.003-2.926,0.005
	c-0.327-0.002-0.653-0.003-0.98-0.005c-0.975,0.001-1.951,0.003-2.926,0.005c-0.327-0.002-0.653-0.003-0.98-0.005
	c-0.975,0.001-1.951,0.003-2.926,0.005c-0.327-0.002-0.653-0.003-0.98-0.005c-0.975,0.001-1.95,0.003-2.926,0.005
	c-0.327-0.002-0.653-0.003-0.98-0.005c-0.976,0.002-1.952,0.004-2.928,0.007c-2.652-0.15-2.652-0.15-2.502,2.502
	c-0.168,2.676-1.176,3.676-3.748,3.72c-0.253-0.086-0.506-0.173-0.759-0.259c-0.494-0.319-0.933-0.702-1.313-1.15
	c-0.134-0.294-0.268-0.588-0.401-0.882c-0.032-0.801-0.064-1.603-0.096-2.404c-0.001-0.327-0.003-0.653-0.005-0.98
	c0.134-0.464-0.044-0.615-0.515-0.591c-0.791,0.041-1.585,0.031-2.378,0.042c-0.327-0.002-0.653-0.003-0.98-0.005
	c-0.976,0.001-1.951,0.003-2.926,0.005c-0.327-0.002-0.653-0.003-0.98-0.005c-0.976,0.001-1.951,0.003-2.926,0.005
	c-0.327-0.002-0.653-0.004-0.98-0.005c-0.257-0.01-0.514-0.03-0.771-0.028c-2.17,0.018-3.115,0.962-3.132,3.132
	C6.25,15.891,6.27,16.148,6.28,16.405c0.001,0.326,0.003,0.653,0.005,0.979C6.283,18.36,6.282,19.335,6.28,20.31
	c0.001,0.327,0.003,0.653,0.005,0.98c-0.134,0.464,0.044,0.615,0.515,0.591c0.791-0.041,1.585-0.031,2.378-0.042
	c0.327,0.002,0.653,0.003,0.98,0.005c0.976-0.001,1.951-0.003,2.926-0.005c0.327,0.002,0.653,0.003,0.98,0.005
	c0.976-0.001,1.951-0.003,2.926-0.004c0.327,0.001,0.653,0.003,0.98,0.005c0.976-0.001,1.951-0.003,2.926-0.005
	c0.327,0.001,0.653,0.003,0.98,0.005c0.976-0.002,1.951-0.003,2.926-0.005c0.327,0.001,0.653,0.003,0.98,0.004
	c0.976-0.001,1.951-0.003,2.926-0.005c0.327,0.002,0.653,0.003,0.98,0.005c0.975-0.001,1.95-0.003,2.926-0.005
	c0.327,0.002,0.653,0.003,0.98,0.005c0.975-0.001,1.951-0.003,2.926-0.005c0.327,0.002,0.653,0.003,0.98,0.005
	c0.975-0.001,1.951-0.003,2.926-0.005c0.327,0.002,0.653,0.003,0.98,0.005c0.975-0.001,1.95-0.003,2.926-0.005
	c0.327,0.002,0.653,0.003,0.98,0.005c0.975-0.001,1.95-0.003,2.926-0.005c0.327,0.002,0.653,0.003,0.98,0.005
	c0.975-0.001,1.951-0.003,2.927-0.004c0.326,0.001,0.652,0.003,0.979,0.005c0.976-0.002,1.951-0.003,2.926-0.005
	c0.327,0.001,0.653,0.003,0.979,0.004c0.976-0.001,1.951-0.003,2.927-0.004c0.327,0.001,0.653,0.003,0.979,0.004
	c0.976-0.001,1.95-0.003,2.926-0.005c0.326,0.002,0.654,0.003,0.98,0.005c0.975-0.001,1.95-0.003,2.926-0.004
	c0.326,0.001,0.653,0.003,0.98,0.004c0.975-0.001,1.95-0.003,2.926-0.004c0.326,0.001,0.653,0.003,0.98,0.005
	c1.625,0.01,3.253,0.003,4.879,0.04c0.471,0.01,0.607-0.128,0.598-0.598c-0.035-1.626-0.029-3.253-0.039-4.879
	c-0.003-0.327-0.005-0.653-0.008-0.98c-0.006-0.973-0.168-1.875-1.113-2.414c-0.164-0.176-0.354-0.302-0.609-0.29
	c-0.889-0.361-1.813-0.208-2.729-0.188c-0.325-0.002-0.653-0.003-0.979-0.005c-0.976,0.001-1.95,0.003-2.926,0.005
	c-0.326-0.002-0.654-0.003-0.98-0.005c-0.975,0.001-1.951,0.003-2.926,0.004C65.495,12.533,65.169,12.532,64.842,12.53z
	 M91.389,65.626c-0.046-0.24-0.15-0.446-0.354-0.593c-0.279-0.663-0.696-1.233-1.186-1.754c-0.131-0.309-0.347-0.545-0.605-0.747
	c-0.43-0.612-0.939-1.144-1.555-1.573c-0.099-0.086-0.195-0.172-0.293-0.257c-0.535-0.562-1.142-1.022-1.836-1.368
	c-0.146-0.206-0.346-0.324-0.59-0.371c-0.588-0.455-1.24-0.781-1.945-1.01c-0.234-0.189-0.492-0.319-0.799-0.331
	c-0.662-0.372-1.39-0.55-2.121-0.708c-0.336-0.078-0.672-0.156-1.006-0.234c-0.763-0.197-1.533-0.313-2.322-0.305
	c-0.389-0.16-0.791-0.119-1.193-0.091c-0.98-0.038-1.964-0.108-2.928,0.163c-0.399-0.021-0.801-0.062-1.17,0.156
	c-1.44,0.15-2.814,0.535-4.111,1.188c-4.559,1.828-7.753,5.022-9.582,9.582c-0.654,1.297-1.038,2.671-1.189,4.11
	c-0.217,0.369-0.176,0.771-0.155,1.17c-0.271,0.965-0.201,1.947-0.163,2.929c-0.028,0.403-0.069,0.808,0.091,1.196
	c-0.008,0.787,0.106,1.559,0.306,2.318c0.077,0.338,0.156,0.676,0.234,1.014c0.188,0.849,0.414,1.683,0.837,2.449
	c0.031,0.17,0.026,0.356,0.201,0.465c0.229,0.705,0.555,1.357,1.009,1.943c0.049,0.245,0.167,0.445,0.372,0.592
	c0.347,0.694,0.81,1.303,1.369,1.836c0.078,0.222,0.219,0.388,0.433,0.488c0.387,0.533,0.853,0.986,1.397,1.357
	c0.2,0.262,0.438,0.475,0.745,0.605c0.521,0.489,1.092,0.905,1.756,1.186c0.146,0.203,0.352,0.308,0.592,0.354
	c0.531,0.363,1.094,0.664,1.725,0.814c0.295,0.232,0.633,0.357,1.006,0.387c0.676,0.336,1.389,0.545,2.143,0.607
	c0.293,0.221,0.639,0.185,0.973,0.195c0.836,0.23,1.687,0.323,2.551,0.305c0.326,0.008,0.653,0.016,0.98,0.022
	c1.051,0.084,2.087-0.054,3.119-0.229c0.463-0.059,0.938-0.067,1.367-0.284c1.596-0.269,3.096-0.797,4.492-1.619
	c3.406-1.664,5.942-4.2,7.606-7.606c0.822-1.396,1.353-2.896,1.619-4.492c0.217-0.43,0.228-0.904,0.285-1.367
	c0.175-1.032,0.313-2.068,0.229-3.119c-0.009-0.327-0.017-0.654-0.023-0.982c0.02-0.863-0.073-1.715-0.305-2.549
	c-0.012-0.336,0.023-0.681-0.196-0.975c-0.062-0.754-0.271-1.465-0.606-2.141c-0.029-0.373-0.154-0.711-0.387-1.006
	C92.055,66.719,91.752,66.158,91.389,65.626z"/>
<path fill="#9F9F9F" d="M87.223,68.4c0.209,0.209,0.418,0.418,0.627,0.627c0.319,0.587,0.558,1.201,0.639,1.869
	c-0.065,0.393-0.133,0.783-0.199,1.174c-0.335,0.598-0.784,1.1-1.27,1.584c-4.16,4.146-8.313,8.301-12.463,12.461
	c-0.461,0.462-0.938,0.891-1.508,1.211c-0.393,0.068-0.783,0.137-1.176,0.203c-0.701-0.021-1.318-0.309-1.923-0.627
	c-0.204-0.191-0.409-0.385-0.613-0.578c-0.396-0.514-0.851-0.969-1.364-1.364c-0.138-0.255-0.334-0.45-0.589-0.589
	c-0.396-0.514-0.851-0.969-1.364-1.364c-0.139-0.255-0.334-0.45-0.588-0.589c-0.396-0.514-0.852-0.969-1.365-1.363
	c-0.137-0.256-0.334-0.451-0.588-0.59c-0.444-0.458-0.891-0.917-1.336-1.375c-0.113-0.201-0.229-0.4-0.343-0.601
	c-0.382-0.985-0.276-1.948,0.14-2.896c0.381-0.383,0.764-0.766,1.146-1.147c0.949-0.426,1.916-0.527,2.906-0.146
	c0.198,0.114,0.399,0.229,0.6,0.344c0.459,0.443,0.918,0.89,1.377,1.336c0.138,0.254,0.332,0.449,0.587,0.586
	c0.397,0.515,0.854,0.97,1.366,1.367c0.136,0.254,0.333,0.449,0.587,0.588c1.299,1.513,1.299,1.513,2.65,0.158
	c3.146-3.146,6.298-6.291,9.438-9.445c0.482-0.484,0.984-0.936,1.584-1.271c0.391-0.067,0.781-0.134,1.174-0.2
	C86.021,67.844,86.635,68.08,87.223,68.4z"/>
<path fill="#9F9F9F" d="M45.896,59.34c0.323,0.021,0.646,0.04,0.968,0.061c0.014,0.771,0.027,1.545,0.041,2.316
	c0.001,0.327,0.003,0.654,0.004,0.98c-0.001,0.975-0.003,1.951-0.004,2.926c0.001,0.327,0.003,0.652,0.004,0.98
	c-0.037,0.688,0.181,1.635-0.183,1.998c-0.363,0.363-1.309,0.146-1.999,0.184c-0.327-0.002-0.653-0.004-0.979-0.006
	c-0.976,0.002-1.951,0.004-2.926,0.006c-0.327-0.002-0.653-0.004-0.98-0.006c-0.772-0.014-1.545-0.025-2.317-0.039
	c-0.02-0.323-0.04-0.646-0.06-0.969c0.001-0.976,0.003-1.951,0.004-2.926c-0.001-0.328-0.003-0.654-0.004-0.98
	c0.001-0.975,0.003-1.951,0.004-2.926c-0.001-0.328-0.003-0.654-0.004-0.98c-0.039-0.451,0.167-0.657,0.619-0.619
	c0.327,0.002,0.653,0.004,0.98,0.006c0.976-0.002,1.951-0.004,2.926-0.006c0.327,0.002,0.653,0.004,0.98,0.006
	C43.946,59.344,44.921,59.342,45.896,59.34z"/>
<path fill="#9F9F9F" d="M62.525,43.74c-0.021-0.323-0.041-0.646-0.062-0.968c0.002-0.975,0.004-1.951,0.005-2.926
	c-0.001-0.327-0.003-0.653-0.005-0.98c0.002-0.975,0.004-1.951,0.005-2.926c-0.001-0.327-0.003-0.653-0.005-0.98
	c-0.038-0.451,0.168-0.657,0.619-0.619c0.327,0.001,0.653,0.003,0.979,0.004c0.976-0.001,1.951-0.003,2.927-0.004
	c0.327,0.001,0.653,0.003,0.979,0.004c0.975-0.001,1.951-0.003,2.926-0.004c0.322,0.02,0.646,0.04,0.97,0.06
	c0.014,0.772,0.026,1.545,0.04,2.317c0,0.327,0.003,0.653,0.005,0.98c-0.002,0.975-0.005,1.951-0.005,2.926
	c0,0.327,0.003,0.653,0.005,0.979c-0.037,0.69,0.181,1.636-0.183,2c-0.365,0.363-1.311,0.145-2,0.182
	c-0.326-0.001-0.652-0.003-0.979-0.004c-0.976,0.001-1.951,0.003-2.927,0.004c-0.326-0.001-0.652-0.003-0.979-0.004
	C64.07,43.767,63.297,43.753,62.525,43.74z"/>
<path fill="#9F9F9F" d="M29.104,68.785c-0.327-0.002-0.653-0.004-0.98-0.006c-0.976,0.002-1.951,0.004-2.927,0.006
	c-0.077-0.078-0.154-0.154-0.231-0.232c0.001-0.975,0.003-1.951,0.004-2.926c-0.001-0.327-0.003-0.652-0.004-0.98
	c0.001-0.975,0.003-1.951,0.004-2.926c-0.001-0.326-0.003-0.654-0.004-0.979c0.078-1.322,0.078-1.322,1.4-1.4
	c0.327,0.002,0.653,0.005,0.98,0.005c0.976,0,1.951-0.003,2.926-0.005c0.327,0.002,0.653,0.005,0.98,0.005
	c0.976,0,1.951-0.003,2.927-0.005c0.077,0.078,0.154,0.154,0.231,0.232c-0.001,0.975-0.003,1.95-0.004,2.926
	c0.001,0.327,0.003,0.653,0.004,0.979c-0.001,0.977-0.003,1.951-0.004,2.926c0.001,0.328,0.003,0.654,0.004,0.98
	c-0.078,1.322-0.078,1.322-1.4,1.4c-0.327-0.002-0.653-0.004-0.98-0.006C31.054,68.781,30.079,68.783,29.104,68.785z"/>
<path fill="#9F9F9F" d="M12.47,66.408c-0.001-0.327-0.003-0.654-0.004-0.98c0.001-0.975,0.003-1.951,0.004-2.926
	c-0.001-0.327-0.003-0.654-0.004-0.98c0.037-0.688-0.182-1.636,0.182-1.998c0.363-0.364,1.309-0.146,1.999-0.184
	c0.327,0.002,0.653,0.004,0.98,0.006c0.976-0.002,1.951-0.004,2.926-0.006c0.327,0.002,0.653,0.004,0.98,0.006
	c0.772,0.014,1.545,0.025,2.317,0.039c0.02,0.323,0.04,0.646,0.06,0.969c-0.001,0.977-0.003,1.951-0.004,2.926
	c0.001,0.328,0.003,0.654,0.004,0.98c-0.001,0.977-0.003,1.951-0.004,2.926c0.001,0.328,0.003,0.654,0.004,0.98
	c0.039,0.451-0.168,0.657-0.619,0.619c-0.326-0.002-0.653-0.004-0.979-0.005c-0.976,0.001-1.951,0.003-2.926,0.005
	c-0.327-0.002-0.653-0.004-0.98-0.006c-0.976,0.002-1.951,0.004-2.927,0.005c-0.322-0.021-0.645-0.04-0.968-0.06
	C12.497,67.953,12.483,67.18,12.47,66.408z"/>
<path fill="#9F9F9F" d="M27.928,34.34c0.326,0.001,0.653,0.003,0.979,0.004c0.976-0.001,1.951-0.003,2.926-0.004
	c0.327,0.001,0.653,0.003,0.98,0.004c0.25,0.01,0.509,0.065,0.75,0.021c0.663-0.122,0.901,0.164,0.842,0.789
	c0.001,0.327,0.003,0.653,0.004,0.98c-0.001,0.975-0.003,1.951-0.004,2.926c0.001,0.327,0.003,0.653,0.004,0.98
	c-0.001,0.975-0.003,1.951-0.004,2.926c0.07,0.612-0.201,0.883-0.813,0.813c-0.976,0.001-1.951,0.003-2.926,0.004
	c-0.327-0.001-0.653-0.003-0.98-0.004c-0.976,0.001-1.951,0.003-2.926,0.004c-0.327-0.001-0.653-0.003-0.98-0.004
	c-0.626,0.06-0.91-0.179-0.789-0.842c0.044-0.24-0.011-0.499-0.021-0.75c-0.001-0.327-0.003-0.653-0.004-0.98
	c0.001-0.976,0.003-1.951,0.004-2.926c-0.001-0.327-0.003-0.653-0.004-0.98c0.019-0.972,0.038-1.943,0.056-2.915l-0.006,0.006
	C25.986,34.376,26.958,34.358,27.928,34.34z"/>
<path fill="#9F9F9F" d="M43.553,34.34c0.327,0.001,0.653,0.003,0.98,0.004c0.772,0.014,1.545,0.027,2.317,0.041
	c0.02,0.323,0.04,0.646,0.06,0.968c-0.001,0.975-0.003,1.951-0.004,2.926c0.001,0.327,0.003,0.653,0.004,0.98
	c-0.001,0.975-0.003,1.951-0.004,2.926c0.001,0.327,0.003,0.653,0.004,0.98c0.039,0.451-0.167,0.657-0.619,0.619
	c-0.327-0.001-0.653-0.003-0.98-0.004c-0.976,0.001-1.951,0.003-2.926,0.004c-0.327-0.001-0.653-0.003-0.98-0.004
	c-0.976,0.001-1.951,0.003-2.926,0.004c-0.323-0.02-0.646-0.04-0.968-0.06c-0.014-0.772-0.027-1.545-0.041-2.317
	c-0.001-0.327-0.003-0.653-0.004-0.98c0.001-0.976,0.003-1.951,0.004-2.926c-0.001-0.327-0.003-0.653-0.004-0.98
	c0.037-0.69-0.182-1.636,0.182-1.999c0.363-0.364,1.309-0.146,1.999-0.182c0.327,0.001,0.653,0.003,0.98,0.004
	C41.602,34.343,42.578,34.342,43.553,34.34z"/>
<path fill="#9F9F9F" d="M12.47,50.783c-0.001-0.327-0.003-0.654-0.004-0.98c0.018-0.971,0.036-1.941,0.053-2.912l-0.006,0.006
	c0.972-0.019,1.943-0.038,2.915-0.057c0.327,0.001,0.653,0.003,0.98,0.004c0.976-0.001,1.951-0.003,2.926-0.004
	c0.327,0.001,0.653,0.003,0.98,0.004c0.25,0.01,0.509,0.065,0.75,0.021c0.663-0.122,0.901,0.163,0.842,0.789
	c0.001,0.327,0.003,0.653,0.004,0.98c-0.001,0.976-0.003,1.951-0.004,2.927c0.001,0.326,0.003,0.653,0.004,0.979
	c-0.001,0.976-0.003,1.951-0.004,2.926c0.07,0.612-0.201,0.884-0.813,0.813c-0.976,0-1.951,0.003-2.927,0.005
	c-0.327-0.002-0.653-0.005-0.979-0.005c-0.976,0-1.951,0.003-2.927,0.005c-0.326-0.002-0.653-0.005-0.979-0.005
	c-0.626,0.06-0.911-0.18-0.789-0.842c0.044-0.24-0.011-0.5-0.021-0.75c-0.001-0.326-0.003-0.653-0.004-0.979
	C12.467,52.734,12.468,51.758,12.47,50.783z"/>
<path fill="#9F9F9F" d="M54.104,43.785c-0.326-0.001-0.652-0.003-0.979-0.004c-0.976,0.001-1.951,0.003-2.926,0.004
	c-0.078-0.077-0.154-0.154-0.232-0.231c0.001-0.976,0.003-1.951,0.004-2.927c-0.001-0.327-0.003-0.653-0.004-0.98
	c0.001-0.976,0.003-1.951,0.004-2.926c-0.001-0.327-0.003-0.653-0.004-0.98c0.078-1.322,0.078-1.322,1.4-1.4
	c0.327,0.001,0.653,0.003,0.979,0.004c0.975-0.001,1.951-0.003,2.926-0.004c0.328,0.001,0.653,0.003,0.98,0.004
	c0.975-0.001,1.951-0.003,2.926-0.004c0.078,0.077,0.154,0.154,0.232,0.231c-0.002,0.976-0.004,1.951-0.006,2.927
	c0.002,0.327,0.004,0.653,0.006,0.979c-0.002,0.976-0.004,1.951-0.006,2.927c0.002,0.327,0.004,0.653,0.006,0.98
	c-0.078,1.322-0.078,1.322-1.4,1.4c-0.326-0.001-0.652-0.003-0.98-0.004C56.055,43.782,55.078,43.783,54.104,43.785z"/>
<path fill="#9F9F9F" d="M46.905,49.999c0.001,0.327,0.003,0.653,0.004,0.979c-0.001,0.976-0.003,1.951-0.004,2.926
	c0.001,0.328,0.003,0.654,0.004,0.98c-0.078,1.322-0.078,1.322-1.4,1.4c-0.327-0.002-0.653-0.004-0.98-0.006
	c-0.976,0.002-1.951,0.004-2.926,0.006c-0.327-0.002-0.653-0.004-0.98-0.006c-0.976,0.002-1.951,0.004-2.927,0.006
	c-0.077-0.078-0.154-0.154-0.231-0.232c0.001-0.975,0.003-1.951,0.004-2.926c-0.001-0.327-0.003-0.654-0.004-0.98
	c0.001-0.976,0.003-1.951,0.004-2.925c-0.001-0.327-0.003-0.653-0.004-0.98c0.078-1.322,0.078-1.322,1.4-1.4
	c0.327,0.001,0.653,0.003,0.98,0.004c0.976-0.001,1.951-0.003,2.926-0.004c0.327,0.001,0.653,0.003,0.98,0.004
	c0.976-0.001,1.951-0.003,2.926-0.004c0.078,0.077,0.155,0.154,0.232,0.231C46.908,48.047,46.907,49.023,46.905,49.999z"/>
<path fill="#9F9F9F" d="M34.405,50.779c0.001,0.326,0.003,0.654,0.004,0.979c-0.001,0.976-0.003,1.951-0.004,2.927
	c0.001,0.326,0.003,0.653,0.004,0.979c0.039,0.451-0.168,0.657-0.619,0.619c-0.327-0.002-0.653-0.005-0.98-0.005
	c-0.976,0-1.951,0.003-2.926,0.005c-0.327-0.002-0.653-0.005-0.98-0.005c-0.976,0-1.951,0.003-2.927,0.005
	c-0.322-0.021-0.645-0.04-0.968-0.062c-0.014-0.771-0.027-1.545-0.041-2.315c-0.001-0.327-0.003-0.654-0.004-0.98
	c0.001-0.975,0.003-1.95,0.004-2.926c-0.001-0.327-0.003-0.654-0.004-0.98c0.037-0.69-0.182-1.636,0.182-1.999
	c0.363-0.364,1.309-0.146,2-0.182c0.326,0.001,0.653,0.003,0.979,0.004c0.976-0.001,1.951-0.003,2.926-0.004
	c0.327,0.001,0.653,0.003,0.98,0.004c0.772,0.014,1.545,0.027,2.317,0.041c0.02,0.323,0.04,0.646,0.06,0.968
	C34.408,48.829,34.407,49.804,34.405,50.779z"/>
<path fill="#9F9F9F" d="M58.563,56.273c-0.647,0-1.09,0-1.528,0c-0.327-0.002-0.653-0.004-0.979-0.004
	c-0.976,0-1.951,0.002-2.927,0.004c-0.326-0.002-0.653-0.004-0.979-0.004c-0.772-0.015-1.545-0.027-2.317-0.041
	c-0.02-0.322-0.04-0.646-0.06-0.97c0.002-0.975,0.003-1.95,0.005-2.926c-0.001-0.326-0.003-0.653-0.005-0.979
	c0.002-0.976,0.003-1.951,0.005-2.927c-0.001-0.327-0.003-0.653-0.005-0.98c-0.039-0.451,0.168-0.658,0.619-0.619
	c0.326,0.001,0.653,0.003,0.98,0.005c0.976-0.001,1.95-0.003,2.926-0.005c0.326,0.001,0.653,0.003,0.979,0.005
	c0.976-0.001,1.951-0.003,2.927-0.005c0.321,0.02,0.646,0.04,0.969,0.06c0.015,0.772,0.027,1.545,0.04,2.317
	c0.001,0.326,0.003,0.653,0.005,0.979c-0.002,0.976-0.004,1.951-0.005,2.927c0.001,0.326,0.003,0.652,0.005,0.979
	c0,0.496,0,0.992,0,1.625"/>
</svg>
