<?xml version="1.0" encoding="utf-8"?>
<!-- Generator: Adobe Illustrator 16.0.0, SVG Export Plug-In . SVG Version: 6.00 Build 0)  -->
<!DOCTYPE svg PUBLIC "-//W3C//DTD SVG 1.1//EN" "http://www.w3.org/Graphics/SVG/1.1/DTD/svg11.dtd">
<svg version="1.1" id="Layer_1" xmlns="http://www.w3.org/2000/svg" xmlns:xlink="http://www.w3.org/1999/xlink" x="0px" y="0px"
	 width="100px" height="100px" viewBox="0 0 100 100" enable-background="new 0 0 100 100" xml:space="preserve">
<path fill="#E4CC36" d="M0,52.958c0-1.972,0-3.944,0-5.916c0.175-0.077,0.096-0.235,0.104-0.355c0.183-2.681,0.552-5.336,1.168-7.95
	c2.364-10.024,7.274-18.594,14.882-25.539c8.382-7.651,18.289-11.932,29.59-12.993c0.527-0.05,1.073,0.022,1.583-0.183
	c1.769,0,3.536,0,5.304,0c0.066,0.155,0.205,0.086,0.311,0.092c2.977,0.157,5.912,0.59,8.806,1.292
	C70.783,3.6,78.59,8.002,85.214,14.519c8.128,7.996,13.017,17.62,14.401,28.951c0.703,5.757,0.441,11.5-0.77,17.184
	C96.43,72.008,90.643,81.316,81.689,88.65c-8.012,6.561-17.209,10.261-27.533,11.154c-0.475,0.041-0.969-0.037-1.424,0.174
	c-1.904,0-3.809,0-5.712,0c-0.059-0.16-0.199-0.097-0.305-0.104c-2.698-0.172-5.37-0.541-8.003-1.152
	c-9.455-2.195-17.647-6.671-24.401-13.679C5.994,76.413,1.293,66.113,0.179,54.175C0.141,53.77,0.216,53.34,0,52.958z M7.548,49.939
	C7.426,71.879,25.403,92.4,49.928,92.447c21.845,0.039,42.485-17.786,42.487-42.409C92.418,26.803,73.293,7.641,50.03,7.562
	C29.537,7.491,7.602,24.049,7.548,49.939z"/>
<path fill="#E4CC36" d="M30.186,49.848c0-8.941-0.002-17.882,0.001-26.823c0.001-1.795,1.027-3.11,2.686-3.384
	c1.072-0.176,2.091,0.052,3.037,0.598c6.538,3.767,13.077,7.529,19.615,11.295c8.859,5.103,17.72,10.204,26.578,15.309
	c1.655,0.954,2.307,2.765,1.51,4.445c-0.411,0.864-1.147,1.524-1.975,2.002c-9.838,5.681-19.686,11.343-29.531,17.009
	c-5.51,3.172-11.021,6.346-16.531,9.514c-1.712,0.984-3.566,0.738-4.636-0.653c-0.54-0.705-0.753-1.548-0.753-2.435
	c-0.002-4.521-0.001-9.043-0.001-13.564C30.186,58.723,30.186,54.285,30.186,49.848z"/>
</svg>
