<?xml version="1.0" encoding="utf-8"?>
<!-- Generator: Adobe Illustrator 16.0.0, SVG Export Plug-In . SVG Version: 6.00 Build 0)  -->
<!DOCTYPE svg PUBLIC "-//W3C//DTD SVG 1.1//EN" "http://www.w3.org/Graphics/SVG/1.1/DTD/svg11.dtd">
<svg version="1.1" id="Layer_1" xmlns="http://www.w3.org/2000/svg" xmlns:xlink="http://www.w3.org/1999/xlink" x="0px" y="0px"
	 width="100px" height="100px" viewBox="0 0 100 100" enable-background="new 0 0 100 100" xml:space="preserve">
<path fill="#3CBCA3" d="M32.036,75.938c-1.422-1.485-2.803-2.912-4.163-4.354c-5.113-5.423-5.107-5.421,0.356-10.484
	c3.285-3.045,6.496-6.173,9.859-9.127c1.696-1.491,1.688-2.429-0.051-3.958c-4.52-3.977-8.866-8.155-13.243-12.294
	c-0.788-0.745-2.354-1.407-0.994-2.893c2.397-2.618,4.841-5.193,7.276-7.776c1.46-1.548,2.151,0.111,2.922,0.819
	c4.663,4.281,9.35,8.544,13.86,12.985c1.692,1.666,2.761,1.54,4.375-0.039c4.194-4.103,8.543-8.047,12.832-12.054
	c0.677-0.631,1.443-1.871,2.024-1.791c4.497,0.626,5.806,5.166,8.894,7.58c1.781,1.392,0.271,2.276-0.683,3.168
	c-4.284,4.008-8.495,8.103-12.907,11.968c-1.951,1.708-2.236,2.756-0.109,4.597c4.434,3.838,8.607,7.973,12.938,11.933
	c1.416,1.294,1.941,2.107,0.291,3.952c-7.279,8.138-7.186,8.213-15.188,0.687c-2.7-2.541-5.525-4.957-8.102-7.615
	c-1.625-1.68-2.669-1.691-4.365-0.012c-4.385,4.348-8.983,8.48-13.503,12.69C33.69,74.537,32.985,75.113,32.036,75.938z"/>
<path fill="#3CBCA3" d="M0.499,12.249C0.808,9.002-1.199,3.853,1.2,1.394C3.626-1.091,8.801,0.82,12.763,0.605
	c1.38-0.074,2.769-0.012,4.153-0.012c8.831,0,10.063,1.626,8.503,10.604c-0.308,1.771-1.194,1.748-2.484,1.824
	c-3.19,0.188-7.511-1.441-9.256,0.662c-1.614,1.945-0.604,6.115-0.636,9.306c-0.015,1.497-0.456,2.359-2.084,2.256
	c-0.307-0.019-0.616-0.011-0.923,0.005C0.499,25.757,0.499,25.757,0.499,12.249z"/>
<path fill="#3CBCA3" d="M12.146,99.404c-3.238-0.309-8.372,1.691-10.854-0.703c-2.497-2.41-0.569-7.57-0.772-11.52
	c-0.11-2.147-0.02-4.306-0.02-6.457c0-5.971,0-5.971,6.198-5.971c6.32,0,6.604,0.018,6.226,6.339
	c-0.268,4.494,0.497,6.888,5.729,6.152c2.104-0.297,5.727-1.312,6.356,0.694c1.011,3.22,0.447,6.99,0.229,10.51
	c-0.089,1.43-1.707,0.914-2.684,0.933C19.326,99.439,16.096,99.404,12.146,99.404z"/>
<path fill="#3CBCA3" d="M87.443,0.822c3.852,0,9.021-1.515,11.214,0.394c2.589,2.253,0.591,7.551,0.847,11.519
	c0.079,1.23,0.014,2.471,0.014,3.707c0,9.552,0.004,9.477-9.807,8.859c-2.031-0.127-2.578-0.723-2.591-2.683
	c-0.021-3.053,1.356-6.937-0.572-8.943c-1.95-2.027-5.854-0.576-8.896-0.625c-2.045-0.034-2.936-0.392-3.057-2.767
	c-0.498-9.678-0.601-9.672,9.139-9.672c1.236,0,2.472,0,3.707,0C87.441,0.68,87.441,0.751,87.443,0.822z"/>
<path fill="#3CBCA3" d="M87.281,99.396c-1.391,0-2.78,0-4.17,0c-9.129,0-9.823-0.877-8.479-10.229
	c0.181-1.254,0.403-2.065,1.824-2.021c0.462,0.017,0.931,0.041,1.388-0.012c3.002-0.355,6.979,1.461,8.76-0.838
	c1.445-1.871,0.584-5.615,0.533-8.525c-0.033-2.025,0.356-2.943,2.737-3.071c9.646-0.521,9.64-0.625,9.64,9.067
	c0,4.17-0.119,8.346,0.047,12.508c0.094,2.326-0.468,3.351-3.018,3.17C93.471,99.23,90.37,99.396,87.281,99.396z"/>
<path fill="#3CBCA3" d="M13.039,50.221c0,1.074,0,2.15,0,3.227c0,9.983,0.005,9.932-10.191,8.94
	c-1.738-0.17-2.412-0.629-2.391-2.434c0.078-6.607,0.072-13.216,0.002-19.824c-0.019-1.735,0.51-2.63,2.337-2.475
	c0.305,0.026,0.615,0.009,0.922-0.002c9.321-0.379,9.321-0.379,9.321,8.878C13.039,47.761,13.039,48.991,13.039,50.221z"/>
<path fill="#3CBCA3" d="M49.957,12.998c-1.388,0-2.775,0-4.163,0c-8.336,0-8.188-0.002-8.291-8.582
	c-0.037-3.034,0.786-3.993,3.833-3.882C47.34,0.753,53.361,0.696,59.37,0.55c2.396-0.058,3.084,0.664,3.14,3.106
	c0.211,9.344,0.313,9.341-8.854,9.341C52.423,12.998,51.189,12.998,49.957,12.998z"/>
<path fill="#3CBCA3" d="M49.831,99.398c-1.077,0-2.153,0-3.231,0c-9.638,0-9.574,0.004-9.065-9.586
	c0.102-1.92,0.489-2.742,2.574-2.709c6.614,0.104,13.232,0.117,19.845-0.006c2.124-0.041,2.442,0.793,2.534,2.688
	c0.469,9.615,0.529,9.613-8.965,9.613C52.293,99.398,51.063,99.398,49.831,99.398z"/>
<path fill="#3CBCA3" d="M99.514,50.132c0,2.774-0.246,5.577,0.062,8.317c0.383,3.418-1.042,4-4.127,3.941
	c-8.267-0.158-8.269-0.014-8.269-8.063c0-4.316,0.131-8.64-0.05-12.949c-0.11-2.629,0.376-3.771,3.448-3.774
	c8.936-0.009,8.936-0.173,8.936,8.827C99.514,47.665,99.514,48.898,99.514,50.132z"/>
</svg>
